<?xml version="1.0" encoding="utf-8" standalone="no"?>
<!DOCTYPE svg PUBLIC "-//W3C//DTD SVG 1.1//EN"
  "http://www.w3.org/Graphics/SVG/1.1/DTD/svg11.dtd">
<svg xmlns:xlink="http://www.w3.org/1999/xlink" width="712.205625pt" height="423.924375pt" viewBox="0 0 712.205625 423.924375" xmlns="http://www.w3.org/2000/svg" version="1.1">
 <metadata>
  <rdf:RDF xmlns:dc="http://purl.org/dc/elements/1.1/" xmlns:cc="http://creativecommons.org/ns#" xmlns:rdf="http://www.w3.org/1999/02/22-rdf-syntax-ns#">
   <cc:Work>
    <dc:type rdf:resource="http://purl.org/dc/dcmitype/StillImage"/>
    <dc:date>2024-01-14T12:29:08.080846</dc:date>
    <dc:format>image/svg+xml</dc:format>
    <dc:creator>
     <cc:Agent>
      <dc:title>Matplotlib v3.8.1, https://matplotlib.org/</dc:title>
     </cc:Agent>
    </dc:creator>
   </cc:Work>
  </rdf:RDF>
 </metadata>
 <defs>
  <style type="text/css">*{stroke-linejoin: round; stroke-linecap: butt}</style>
 </defs>
 <g id="figure_1">
  <g id="patch_1">
   <path d="M 0 423.924375 
L 712.205625 423.924375 
L 712.205625 0 
L 0 0 
z
" style="fill: #ffffff"/>
  </g>
  <g id="axes_1">
   <g id="patch_2">
    <path d="M 81.505625 365.07625 
L 705.005625 365.07625 
L 705.005625 31.43625 
L 81.505625 31.43625 
z
" style="fill: #ffffff"/>
   </g>
   <g id="PolyCollection_1">
    <defs>
     <path id="mba652c3185" d="M 109.846534 -377.32267 
L 109.846534 -333.016903 
L 180.698807 -322.735798 
L 251.55108 -317.554938 
L 322.403352 -290.54038 
L 393.255625 -275.014895 
L 464.107898 -237.446882 
L 534.96017 -195.181474 
L 605.812443 -160.247193 
L 676.664716 -123.861333 
L 676.664716 -137.47194 
L 676.664716 -137.47194 
L 605.812443 -173.554576 
L 534.96017 -204.128473 
L 464.107898 -247.453051 
L 393.255625 -283.619087 
L 322.403352 -303.816188 
L 251.55108 -325.063356 
L 180.698807 -339.175423 
L 109.846534 -377.32267 
z
" style="stroke: #000080; stroke-opacity: 0.2"/>
    </defs>
    <g clip-path="url(#p3a8d81c82c)">
     <use xlink:href="#mba652c3185" x="0" y="423.924375" style="fill: #000080; fill-opacity: 0.2; stroke: #000080; stroke-opacity: 0.2"/>
    </g>
   </g>
   <g id="PolyCollection_2">
    <defs>
     <path id="mfcff6dbc51" d="M 109.846534 -343.321898 
L 109.846534 -262.505327 
L 180.698807 -165.780773 
L 251.55108 -139.202612 
L 322.403352 -135.028706 
L 393.255625 -128.236239 
L 464.107898 -115.763209 
L 534.96017 -91.585293 
L 605.812443 -84.902692 
L 676.664716 -74.01358 
L 676.664716 -77.289244 
L 676.664716 -77.289244 
L 605.812443 -100.709606 
L 534.96017 -100.69788 
L 464.107898 -132.49485 
L 393.255625 -154.075924 
L 322.403352 -164.160151 
L 251.55108 -216.932526 
L 180.698807 -219.196766 
L 109.846534 -343.321898 
z
" style="stroke: #ffd700; stroke-opacity: 0.2"/>
    </defs>
    <g clip-path="url(#p3a8d81c82c)">
     <use xlink:href="#mfcff6dbc51" x="0" y="423.924375" style="fill: #ffd700; fill-opacity: 0.2; stroke: #ffd700; stroke-opacity: 0.2"/>
    </g>
   </g>
   <g id="PolyCollection_3">
    <defs>
     <path id="mcee306fe61" d="M 109.846534 -343.695177 
L 109.846534 -263.247006 
L 180.698807 -165.184285 
L 251.55108 -133.872122 
L 322.403352 -135.516199 
L 393.255625 -129.048009 
L 464.107898 -116.287835 
L 534.96017 -92.163219 
L 605.812443 -84.877886 
L 676.664716 -74.103117 
L 676.664716 -77.429848 
L 676.664716 -77.429848 
L 605.812443 -100.560484 
L 534.96017 -100.486642 
L 464.107898 -132.477217 
L 393.255625 -156.816793 
L 322.403352 -164.46627 
L 251.55108 -215.645095 
L 180.698807 -217.524177 
L 109.846534 -343.695177 
z
" style="stroke: #ff8c00; stroke-opacity: 0.2"/>
    </defs>
    <g clip-path="url(#p3a8d81c82c)">
     <use xlink:href="#mcee306fe61" x="0" y="423.924375" style="fill: #ff8c00; fill-opacity: 0.2; stroke: #ff8c00; stroke-opacity: 0.2"/>
    </g>
   </g>
   <g id="PolyCollection_4">
    <defs>
     <path id="mf0185fd724" d="M 109.846534 -343.145605 
L 109.846534 -262.317471 
L 180.698807 -171.238161 
L 251.55108 -133.738194 
L 322.403352 -134.48246 
L 393.255625 -129.636435 
L 464.107898 -115.042631 
L 534.96017 -91.425844 
L 605.812443 -84.88398 
L 676.664716 -74.088087 
L 676.664716 -77.365627 
L 676.664716 -77.365627 
L 605.812443 -100.613364 
L 534.96017 -100.453406 
L 464.107898 -132.234419 
L 393.255625 -151.288367 
L 322.403352 -168.557885 
L 251.55108 -220.204844 
L 180.698807 -223.068267 
L 109.846534 -343.145605 
z
" style="stroke: #ff00ff; stroke-opacity: 0.2"/>
    </defs>
    <g clip-path="url(#p3a8d81c82c)">
     <use xlink:href="#mf0185fd724" x="0" y="423.924375" style="fill: #ff00ff; fill-opacity: 0.2; stroke: #ff00ff; stroke-opacity: 0.2"/>
    </g>
   </g>
   <g id="matplotlib.axis_1">
    <g id="xtick_1">
     <g id="line2d_1">
      <path d="M 109.846534 365.07625 
L 109.846534 31.43625 
" clip-path="url(#p3a8d81c82c)" style="fill: none; stroke-dasharray: 2.96,1.28; stroke-dashoffset: 0; stroke: #808080; stroke-width: 0.8"/>
     </g>
     <g id="line2d_2">
      <defs>
       <path id="mc79c8d2102" d="M 0 0 
L 0 3.5 
" style="stroke: #000000; stroke-width: 0.8"/>
      </defs>
      <g>
       <use xlink:href="#mc79c8d2102" x="109.846534" y="365.07625" style="stroke: #000000; stroke-width: 0.8"/>
      </g>
     </g>
     <g id="text_1">
      <!-- 10 -->
      <g transform="translate(98.394034 385.753437) scale(0.18 -0.18)">
       <defs>
        <path id="DejaVuSans-31" d="M 794 531 
L 1825 531 
L 1825 4091 
L 703 3866 
L 703 4441 
L 1819 4666 
L 2450 4666 
L 2450 531 
L 3481 531 
L 3481 0 
L 794 0 
L 794 531 
z
" transform="scale(0.015625)"/>
        <path id="DejaVuSans-30" d="M 2034 4250 
Q 1547 4250 1301 3770 
Q 1056 3291 1056 2328 
Q 1056 1369 1301 889 
Q 1547 409 2034 409 
Q 2525 409 2770 889 
Q 3016 1369 3016 2328 
Q 3016 3291 2770 3770 
Q 2525 4250 2034 4250 
z
M 2034 4750 
Q 2819 4750 3233 4129 
Q 3647 3509 3647 2328 
Q 3647 1150 3233 529 
Q 2819 -91 2034 -91 
Q 1250 -91 836 529 
Q 422 1150 422 2328 
Q 422 3509 836 4129 
Q 1250 4750 2034 4750 
z
" transform="scale(0.015625)"/>
       </defs>
       <use xlink:href="#DejaVuSans-31"/>
       <use xlink:href="#DejaVuSans-30" x="63.623047"/>
      </g>
     </g>
    </g>
    <g id="xtick_2">
     <g id="line2d_3">
      <path d="M 180.698807 365.07625 
L 180.698807 31.43625 
" clip-path="url(#p3a8d81c82c)" style="fill: none; stroke-dasharray: 2.96,1.28; stroke-dashoffset: 0; stroke: #808080; stroke-width: 0.8"/>
     </g>
     <g id="line2d_4">
      <g>
       <use xlink:href="#mc79c8d2102" x="180.698807" y="365.07625" style="stroke: #000000; stroke-width: 0.8"/>
      </g>
     </g>
     <g id="text_2">
      <!-- 30 -->
      <g transform="translate(169.246307 385.753437) scale(0.18 -0.18)">
       <defs>
        <path id="DejaVuSans-33" d="M 2597 2516 
Q 3050 2419 3304 2112 
Q 3559 1806 3559 1356 
Q 3559 666 3084 287 
Q 2609 -91 1734 -91 
Q 1441 -91 1130 -33 
Q 819 25 488 141 
L 488 750 
Q 750 597 1062 519 
Q 1375 441 1716 441 
Q 2309 441 2620 675 
Q 2931 909 2931 1356 
Q 2931 1769 2642 2001 
Q 2353 2234 1838 2234 
L 1294 2234 
L 1294 2753 
L 1863 2753 
Q 2328 2753 2575 2939 
Q 2822 3125 2822 3475 
Q 2822 3834 2567 4026 
Q 2313 4219 1838 4219 
Q 1578 4219 1281 4162 
Q 984 4106 628 3988 
L 628 4550 
Q 988 4650 1302 4700 
Q 1616 4750 1894 4750 
Q 2613 4750 3031 4423 
Q 3450 4097 3450 3541 
Q 3450 3153 3228 2886 
Q 3006 2619 2597 2516 
z
" transform="scale(0.015625)"/>
       </defs>
       <use xlink:href="#DejaVuSans-33"/>
       <use xlink:href="#DejaVuSans-30" x="63.623047"/>
      </g>
     </g>
    </g>
    <g id="xtick_3">
     <g id="line2d_5">
      <path d="M 251.55108 365.07625 
L 251.55108 31.43625 
" clip-path="url(#p3a8d81c82c)" style="fill: none; stroke-dasharray: 2.96,1.28; stroke-dashoffset: 0; stroke: #808080; stroke-width: 0.8"/>
     </g>
     <g id="line2d_6">
      <g>
       <use xlink:href="#mc79c8d2102" x="251.55108" y="365.07625" style="stroke: #000000; stroke-width: 0.8"/>
      </g>
     </g>
     <g id="text_3">
      <!-- 50 -->
      <g transform="translate(240.09858 385.753437) scale(0.18 -0.18)">
       <defs>
        <path id="DejaVuSans-35" d="M 691 4666 
L 3169 4666 
L 3169 4134 
L 1269 4134 
L 1269 2991 
Q 1406 3038 1543 3061 
Q 1681 3084 1819 3084 
Q 2600 3084 3056 2656 
Q 3513 2228 3513 1497 
Q 3513 744 3044 326 
Q 2575 -91 1722 -91 
Q 1428 -91 1123 -41 
Q 819 9 494 109 
L 494 744 
Q 775 591 1075 516 
Q 1375 441 1709 441 
Q 2250 441 2565 725 
Q 2881 1009 2881 1497 
Q 2881 1984 2565 2268 
Q 2250 2553 1709 2553 
Q 1456 2553 1204 2497 
Q 953 2441 691 2322 
L 691 4666 
z
" transform="scale(0.015625)"/>
       </defs>
       <use xlink:href="#DejaVuSans-35"/>
       <use xlink:href="#DejaVuSans-30" x="63.623047"/>
      </g>
     </g>
    </g>
    <g id="xtick_4">
     <g id="line2d_7">
      <path d="M 322.403352 365.07625 
L 322.403352 31.43625 
" clip-path="url(#p3a8d81c82c)" style="fill: none; stroke-dasharray: 2.96,1.28; stroke-dashoffset: 0; stroke: #808080; stroke-width: 0.8"/>
     </g>
     <g id="line2d_8">
      <g>
       <use xlink:href="#mc79c8d2102" x="322.403352" y="365.07625" style="stroke: #000000; stroke-width: 0.8"/>
      </g>
     </g>
     <g id="text_4">
      <!-- 75 -->
      <g transform="translate(310.950852 385.753437) scale(0.18 -0.18)">
       <defs>
        <path id="DejaVuSans-37" d="M 525 4666 
L 3525 4666 
L 3525 4397 
L 1831 0 
L 1172 0 
L 2766 4134 
L 525 4134 
L 525 4666 
z
" transform="scale(0.015625)"/>
       </defs>
       <use xlink:href="#DejaVuSans-37"/>
       <use xlink:href="#DejaVuSans-35" x="63.623047"/>
      </g>
     </g>
    </g>
    <g id="xtick_5">
     <g id="line2d_9">
      <path d="M 393.255625 365.07625 
L 393.255625 31.43625 
" clip-path="url(#p3a8d81c82c)" style="fill: none; stroke-dasharray: 2.96,1.28; stroke-dashoffset: 0; stroke: #808080; stroke-width: 0.8"/>
     </g>
     <g id="line2d_10">
      <g>
       <use xlink:href="#mc79c8d2102" x="393.255625" y="365.07625" style="stroke: #000000; stroke-width: 0.8"/>
      </g>
     </g>
     <g id="text_5">
      <!-- 100 -->
      <g transform="translate(376.076875 385.753437) scale(0.18 -0.18)">
       <use xlink:href="#DejaVuSans-31"/>
       <use xlink:href="#DejaVuSans-30" x="63.623047"/>
       <use xlink:href="#DejaVuSans-30" x="127.246094"/>
      </g>
     </g>
    </g>
    <g id="xtick_6">
     <g id="line2d_11">
      <path d="M 464.107898 365.07625 
L 464.107898 31.43625 
" clip-path="url(#p3a8d81c82c)" style="fill: none; stroke-dasharray: 2.96,1.28; stroke-dashoffset: 0; stroke: #808080; stroke-width: 0.8"/>
     </g>
     <g id="line2d_12">
      <g>
       <use xlink:href="#mc79c8d2102" x="464.107898" y="365.07625" style="stroke: #000000; stroke-width: 0.8"/>
      </g>
     </g>
     <g id="text_6">
      <!-- 200 -->
      <g transform="translate(446.929148 385.753437) scale(0.18 -0.18)">
       <defs>
        <path id="DejaVuSans-32" d="M 1228 531 
L 3431 531 
L 3431 0 
L 469 0 
L 469 531 
Q 828 903 1448 1529 
Q 2069 2156 2228 2338 
Q 2531 2678 2651 2914 
Q 2772 3150 2772 3378 
Q 2772 3750 2511 3984 
Q 2250 4219 1831 4219 
Q 1534 4219 1204 4116 
Q 875 4013 500 3803 
L 500 4441 
Q 881 4594 1212 4672 
Q 1544 4750 1819 4750 
Q 2544 4750 2975 4387 
Q 3406 4025 3406 3419 
Q 3406 3131 3298 2873 
Q 3191 2616 2906 2266 
Q 2828 2175 2409 1742 
Q 1991 1309 1228 531 
z
" transform="scale(0.015625)"/>
       </defs>
       <use xlink:href="#DejaVuSans-32"/>
       <use xlink:href="#DejaVuSans-30" x="63.623047"/>
       <use xlink:href="#DejaVuSans-30" x="127.246094"/>
      </g>
     </g>
    </g>
    <g id="xtick_7">
     <g id="line2d_13">
      <path d="M 534.96017 365.07625 
L 534.96017 31.43625 
" clip-path="url(#p3a8d81c82c)" style="fill: none; stroke-dasharray: 2.96,1.28; stroke-dashoffset: 0; stroke: #808080; stroke-width: 0.8"/>
     </g>
     <g id="line2d_14">
      <g>
       <use xlink:href="#mc79c8d2102" x="534.96017" y="365.07625" style="stroke: #000000; stroke-width: 0.8"/>
      </g>
     </g>
     <g id="text_7">
      <!-- 500 -->
      <g transform="translate(517.78142 385.753437) scale(0.18 -0.18)">
       <use xlink:href="#DejaVuSans-35"/>
       <use xlink:href="#DejaVuSans-30" x="63.623047"/>
       <use xlink:href="#DejaVuSans-30" x="127.246094"/>
      </g>
     </g>
    </g>
    <g id="xtick_8">
     <g id="line2d_15">
      <path d="M 605.812443 365.07625 
L 605.812443 31.43625 
" clip-path="url(#p3a8d81c82c)" style="fill: none; stroke-dasharray: 2.96,1.28; stroke-dashoffset: 0; stroke: #808080; stroke-width: 0.8"/>
     </g>
     <g id="line2d_16">
      <g>
       <use xlink:href="#mc79c8d2102" x="605.812443" y="365.07625" style="stroke: #000000; stroke-width: 0.8"/>
      </g>
     </g>
     <g id="text_8">
      <!-- 1000 -->
      <g transform="translate(582.907443 385.753437) scale(0.18 -0.18)">
       <use xlink:href="#DejaVuSans-31"/>
       <use xlink:href="#DejaVuSans-30" x="63.623047"/>
       <use xlink:href="#DejaVuSans-30" x="127.246094"/>
       <use xlink:href="#DejaVuSans-30" x="190.869141"/>
      </g>
     </g>
    </g>
    <g id="xtick_9">
     <g id="line2d_17">
      <path d="M 676.664716 365.07625 
L 676.664716 31.43625 
" clip-path="url(#p3a8d81c82c)" style="fill: none; stroke-dasharray: 2.96,1.28; stroke-dashoffset: 0; stroke: #808080; stroke-width: 0.8"/>
     </g>
     <g id="line2d_18">
      <g>
       <use xlink:href="#mc79c8d2102" x="676.664716" y="365.07625" style="stroke: #000000; stroke-width: 0.8"/>
      </g>
     </g>
     <g id="text_9">
      <!-- 2000 -->
      <g transform="translate(653.759716 385.753437) scale(0.18 -0.18)">
       <use xlink:href="#DejaVuSans-32"/>
       <use xlink:href="#DejaVuSans-30" x="63.623047"/>
       <use xlink:href="#DejaVuSans-30" x="127.246094"/>
       <use xlink:href="#DejaVuSans-30" x="190.869141"/>
      </g>
     </g>
    </g>
    <g id="text_10">
     <!-- Amount of Labeled User Data -->
     <g transform="translate(215.899375 411.733125) scale(0.24 -0.24)">
      <defs>
       <path id="DejaVuSans-41" d="M 2188 4044 
L 1331 1722 
L 3047 1722 
L 2188 4044 
z
M 1831 4666 
L 2547 4666 
L 4325 0 
L 3669 0 
L 3244 1197 
L 1141 1197 
L 716 0 
L 50 0 
L 1831 4666 
z
" transform="scale(0.015625)"/>
       <path id="DejaVuSans-6d" d="M 3328 2828 
Q 3544 3216 3844 3400 
Q 4144 3584 4550 3584 
Q 5097 3584 5394 3201 
Q 5691 2819 5691 2113 
L 5691 0 
L 5113 0 
L 5113 2094 
Q 5113 2597 4934 2840 
Q 4756 3084 4391 3084 
Q 3944 3084 3684 2787 
Q 3425 2491 3425 1978 
L 3425 0 
L 2847 0 
L 2847 2094 
Q 2847 2600 2669 2842 
Q 2491 3084 2119 3084 
Q 1678 3084 1418 2786 
Q 1159 2488 1159 1978 
L 1159 0 
L 581 0 
L 581 3500 
L 1159 3500 
L 1159 2956 
Q 1356 3278 1631 3431 
Q 1906 3584 2284 3584 
Q 2666 3584 2933 3390 
Q 3200 3197 3328 2828 
z
" transform="scale(0.015625)"/>
       <path id="DejaVuSans-6f" d="M 1959 3097 
Q 1497 3097 1228 2736 
Q 959 2375 959 1747 
Q 959 1119 1226 758 
Q 1494 397 1959 397 
Q 2419 397 2687 759 
Q 2956 1122 2956 1747 
Q 2956 2369 2687 2733 
Q 2419 3097 1959 3097 
z
M 1959 3584 
Q 2709 3584 3137 3096 
Q 3566 2609 3566 1747 
Q 3566 888 3137 398 
Q 2709 -91 1959 -91 
Q 1206 -91 779 398 
Q 353 888 353 1747 
Q 353 2609 779 3096 
Q 1206 3584 1959 3584 
z
" transform="scale(0.015625)"/>
       <path id="DejaVuSans-75" d="M 544 1381 
L 544 3500 
L 1119 3500 
L 1119 1403 
Q 1119 906 1312 657 
Q 1506 409 1894 409 
Q 2359 409 2629 706 
Q 2900 1003 2900 1516 
L 2900 3500 
L 3475 3500 
L 3475 0 
L 2900 0 
L 2900 538 
Q 2691 219 2414 64 
Q 2138 -91 1772 -91 
Q 1169 -91 856 284 
Q 544 659 544 1381 
z
M 1991 3584 
L 1991 3584 
z
" transform="scale(0.015625)"/>
       <path id="DejaVuSans-6e" d="M 3513 2113 
L 3513 0 
L 2938 0 
L 2938 2094 
Q 2938 2591 2744 2837 
Q 2550 3084 2163 3084 
Q 1697 3084 1428 2787 
Q 1159 2491 1159 1978 
L 1159 0 
L 581 0 
L 581 3500 
L 1159 3500 
L 1159 2956 
Q 1366 3272 1645 3428 
Q 1925 3584 2291 3584 
Q 2894 3584 3203 3211 
Q 3513 2838 3513 2113 
z
" transform="scale(0.015625)"/>
       <path id="DejaVuSans-74" d="M 1172 4494 
L 1172 3500 
L 2356 3500 
L 2356 3053 
L 1172 3053 
L 1172 1153 
Q 1172 725 1289 603 
Q 1406 481 1766 481 
L 2356 481 
L 2356 0 
L 1766 0 
Q 1100 0 847 248 
Q 594 497 594 1153 
L 594 3053 
L 172 3053 
L 172 3500 
L 594 3500 
L 594 4494 
L 1172 4494 
z
" transform="scale(0.015625)"/>
       <path id="DejaVuSans-20" transform="scale(0.015625)"/>
       <path id="DejaVuSans-66" d="M 2375 4863 
L 2375 4384 
L 1825 4384 
Q 1516 4384 1395 4259 
Q 1275 4134 1275 3809 
L 1275 3500 
L 2222 3500 
L 2222 3053 
L 1275 3053 
L 1275 0 
L 697 0 
L 697 3053 
L 147 3053 
L 147 3500 
L 697 3500 
L 697 3744 
Q 697 4328 969 4595 
Q 1241 4863 1831 4863 
L 2375 4863 
z
" transform="scale(0.015625)"/>
       <path id="DejaVuSans-4c" d="M 628 4666 
L 1259 4666 
L 1259 531 
L 3531 531 
L 3531 0 
L 628 0 
L 628 4666 
z
" transform="scale(0.015625)"/>
       <path id="DejaVuSans-61" d="M 2194 1759 
Q 1497 1759 1228 1600 
Q 959 1441 959 1056 
Q 959 750 1161 570 
Q 1363 391 1709 391 
Q 2188 391 2477 730 
Q 2766 1069 2766 1631 
L 2766 1759 
L 2194 1759 
z
M 3341 1997 
L 3341 0 
L 2766 0 
L 2766 531 
Q 2569 213 2275 61 
Q 1981 -91 1556 -91 
Q 1019 -91 701 211 
Q 384 513 384 1019 
Q 384 1609 779 1909 
Q 1175 2209 1959 2209 
L 2766 2209 
L 2766 2266 
Q 2766 2663 2505 2880 
Q 2244 3097 1772 3097 
Q 1472 3097 1187 3025 
Q 903 2953 641 2809 
L 641 3341 
Q 956 3463 1253 3523 
Q 1550 3584 1831 3584 
Q 2591 3584 2966 3190 
Q 3341 2797 3341 1997 
z
" transform="scale(0.015625)"/>
       <path id="DejaVuSans-62" d="M 3116 1747 
Q 3116 2381 2855 2742 
Q 2594 3103 2138 3103 
Q 1681 3103 1420 2742 
Q 1159 2381 1159 1747 
Q 1159 1113 1420 752 
Q 1681 391 2138 391 
Q 2594 391 2855 752 
Q 3116 1113 3116 1747 
z
M 1159 2969 
Q 1341 3281 1617 3432 
Q 1894 3584 2278 3584 
Q 2916 3584 3314 3078 
Q 3713 2572 3713 1747 
Q 3713 922 3314 415 
Q 2916 -91 2278 -91 
Q 1894 -91 1617 61 
Q 1341 213 1159 525 
L 1159 0 
L 581 0 
L 581 4863 
L 1159 4863 
L 1159 2969 
z
" transform="scale(0.015625)"/>
       <path id="DejaVuSans-65" d="M 3597 1894 
L 3597 1613 
L 953 1613 
Q 991 1019 1311 708 
Q 1631 397 2203 397 
Q 2534 397 2845 478 
Q 3156 559 3463 722 
L 3463 178 
Q 3153 47 2828 -22 
Q 2503 -91 2169 -91 
Q 1331 -91 842 396 
Q 353 884 353 1716 
Q 353 2575 817 3079 
Q 1281 3584 2069 3584 
Q 2775 3584 3186 3129 
Q 3597 2675 3597 1894 
z
M 3022 2063 
Q 3016 2534 2758 2815 
Q 2500 3097 2075 3097 
Q 1594 3097 1305 2825 
Q 1016 2553 972 2059 
L 3022 2063 
z
" transform="scale(0.015625)"/>
       <path id="DejaVuSans-6c" d="M 603 4863 
L 1178 4863 
L 1178 0 
L 603 0 
L 603 4863 
z
" transform="scale(0.015625)"/>
       <path id="DejaVuSans-64" d="M 2906 2969 
L 2906 4863 
L 3481 4863 
L 3481 0 
L 2906 0 
L 2906 525 
Q 2725 213 2448 61 
Q 2172 -91 1784 -91 
Q 1150 -91 751 415 
Q 353 922 353 1747 
Q 353 2572 751 3078 
Q 1150 3584 1784 3584 
Q 2172 3584 2448 3432 
Q 2725 3281 2906 2969 
z
M 947 1747 
Q 947 1113 1208 752 
Q 1469 391 1925 391 
Q 2381 391 2643 752 
Q 2906 1113 2906 1747 
Q 2906 2381 2643 2742 
Q 2381 3103 1925 3103 
Q 1469 3103 1208 2742 
Q 947 2381 947 1747 
z
" transform="scale(0.015625)"/>
       <path id="DejaVuSans-55" d="M 556 4666 
L 1191 4666 
L 1191 1831 
Q 1191 1081 1462 751 
Q 1734 422 2344 422 
Q 2950 422 3222 751 
Q 3494 1081 3494 1831 
L 3494 4666 
L 4128 4666 
L 4128 1753 
Q 4128 841 3676 375 
Q 3225 -91 2344 -91 
Q 1459 -91 1007 375 
Q 556 841 556 1753 
L 556 4666 
z
" transform="scale(0.015625)"/>
       <path id="DejaVuSans-73" d="M 2834 3397 
L 2834 2853 
Q 2591 2978 2328 3040 
Q 2066 3103 1784 3103 
Q 1356 3103 1142 2972 
Q 928 2841 928 2578 
Q 928 2378 1081 2264 
Q 1234 2150 1697 2047 
L 1894 2003 
Q 2506 1872 2764 1633 
Q 3022 1394 3022 966 
Q 3022 478 2636 193 
Q 2250 -91 1575 -91 
Q 1294 -91 989 -36 
Q 684 19 347 128 
L 347 722 
Q 666 556 975 473 
Q 1284 391 1588 391 
Q 1994 391 2212 530 
Q 2431 669 2431 922 
Q 2431 1156 2273 1281 
Q 2116 1406 1581 1522 
L 1381 1569 
Q 847 1681 609 1914 
Q 372 2147 372 2553 
Q 372 3047 722 3315 
Q 1072 3584 1716 3584 
Q 2034 3584 2315 3537 
Q 2597 3491 2834 3397 
z
" transform="scale(0.015625)"/>
       <path id="DejaVuSans-72" d="M 2631 2963 
Q 2534 3019 2420 3045 
Q 2306 3072 2169 3072 
Q 1681 3072 1420 2755 
Q 1159 2438 1159 1844 
L 1159 0 
L 581 0 
L 581 3500 
L 1159 3500 
L 1159 2956 
Q 1341 3275 1631 3429 
Q 1922 3584 2338 3584 
Q 2397 3584 2469 3576 
Q 2541 3569 2628 3553 
L 2631 2963 
z
" transform="scale(0.015625)"/>
       <path id="DejaVuSans-44" d="M 1259 4147 
L 1259 519 
L 2022 519 
Q 2988 519 3436 956 
Q 3884 1394 3884 2338 
Q 3884 3275 3436 3711 
Q 2988 4147 2022 4147 
L 1259 4147 
z
M 628 4666 
L 1925 4666 
Q 3281 4666 3915 4102 
Q 4550 3538 4550 2338 
Q 4550 1131 3912 565 
Q 3275 0 1925 0 
L 628 0 
L 628 4666 
z
" transform="scale(0.015625)"/>
      </defs>
      <use xlink:href="#DejaVuSans-41"/>
      <use xlink:href="#DejaVuSans-6d" x="68.408203"/>
      <use xlink:href="#DejaVuSans-6f" x="165.820312"/>
      <use xlink:href="#DejaVuSans-75" x="227.001953"/>
      <use xlink:href="#DejaVuSans-6e" x="290.380859"/>
      <use xlink:href="#DejaVuSans-74" x="353.759766"/>
      <use xlink:href="#DejaVuSans-20" x="392.96875"/>
      <use xlink:href="#DejaVuSans-6f" x="424.755859"/>
      <use xlink:href="#DejaVuSans-66" x="485.9375"/>
      <use xlink:href="#DejaVuSans-20" x="521.142578"/>
      <use xlink:href="#DejaVuSans-4c" x="552.929688"/>
      <use xlink:href="#DejaVuSans-61" x="608.642578"/>
      <use xlink:href="#DejaVuSans-62" x="669.921875"/>
      <use xlink:href="#DejaVuSans-65" x="733.398438"/>
      <use xlink:href="#DejaVuSans-6c" x="794.921875"/>
      <use xlink:href="#DejaVuSans-65" x="822.705078"/>
      <use xlink:href="#DejaVuSans-64" x="884.228516"/>
      <use xlink:href="#DejaVuSans-20" x="947.705078"/>
      <use xlink:href="#DejaVuSans-55" x="979.492188"/>
      <use xlink:href="#DejaVuSans-73" x="1052.685547"/>
      <use xlink:href="#DejaVuSans-65" x="1104.785156"/>
      <use xlink:href="#DejaVuSans-72" x="1166.308594"/>
      <use xlink:href="#DejaVuSans-20" x="1207.421875"/>
      <use xlink:href="#DejaVuSans-44" x="1239.208984"/>
      <use xlink:href="#DejaVuSans-61" x="1316.210938"/>
      <use xlink:href="#DejaVuSans-74" x="1377.490234"/>
      <use xlink:href="#DejaVuSans-61" x="1416.699219"/>
     </g>
    </g>
   </g>
   <g id="matplotlib.axis_2">
    <g id="ytick_1">
     <g id="line2d_19">
      <path d="M 81.505625 335.737648 
L 705.005625 335.737648 
" clip-path="url(#p3a8d81c82c)" style="fill: none; stroke-dasharray: 2.96,1.28; stroke-dashoffset: 0; stroke: #808080; stroke-width: 0.8"/>
     </g>
     <g id="line2d_20">
      <defs>
       <path id="ma68b120b9a" d="M 0 0 
L -3.5 0 
" style="stroke: #000000; stroke-width: 0.8"/>
      </defs>
      <g>
       <use xlink:href="#ma68b120b9a" x="81.505625" y="335.737648" style="stroke: #000000; stroke-width: 0.8"/>
      </g>
     </g>
     <g id="text_11">
      <!-- 2.25 -->
      <g transform="translate(34.4275 342.576241) scale(0.18 -0.18)">
       <defs>
        <path id="DejaVuSans-2e" d="M 684 794 
L 1344 794 
L 1344 0 
L 684 0 
L 684 794 
z
" transform="scale(0.015625)"/>
       </defs>
       <use xlink:href="#DejaVuSans-32"/>
       <use xlink:href="#DejaVuSans-2e" x="63.623047"/>
       <use xlink:href="#DejaVuSans-32" x="95.410156"/>
       <use xlink:href="#DejaVuSans-35" x="159.033203"/>
      </g>
     </g>
    </g>
    <g id="ytick_2">
     <g id="line2d_21">
      <path d="M 81.505625 291.297889 
L 705.005625 291.297889 
" clip-path="url(#p3a8d81c82c)" style="fill: none; stroke-dasharray: 2.96,1.28; stroke-dashoffset: 0; stroke: #808080; stroke-width: 0.8"/>
     </g>
     <g id="line2d_22">
      <g>
       <use xlink:href="#ma68b120b9a" x="81.505625" y="291.297889" style="stroke: #000000; stroke-width: 0.8"/>
      </g>
     </g>
     <g id="text_12">
      <!-- 2.50 -->
      <g transform="translate(34.4275 298.136483) scale(0.18 -0.18)">
       <use xlink:href="#DejaVuSans-32"/>
       <use xlink:href="#DejaVuSans-2e" x="63.623047"/>
       <use xlink:href="#DejaVuSans-35" x="95.410156"/>
       <use xlink:href="#DejaVuSans-30" x="159.033203"/>
      </g>
     </g>
    </g>
    <g id="ytick_3">
     <g id="line2d_23">
      <path d="M 81.505625 246.858131 
L 705.005625 246.858131 
" clip-path="url(#p3a8d81c82c)" style="fill: none; stroke-dasharray: 2.96,1.28; stroke-dashoffset: 0; stroke: #808080; stroke-width: 0.8"/>
     </g>
     <g id="line2d_24">
      <g>
       <use xlink:href="#ma68b120b9a" x="81.505625" y="246.858131" style="stroke: #000000; stroke-width: 0.8"/>
      </g>
     </g>
     <g id="text_13">
      <!-- 2.75 -->
      <g transform="translate(34.4275 253.696725) scale(0.18 -0.18)">
       <use xlink:href="#DejaVuSans-32"/>
       <use xlink:href="#DejaVuSans-2e" x="63.623047"/>
       <use xlink:href="#DejaVuSans-37" x="95.410156"/>
       <use xlink:href="#DejaVuSans-35" x="159.033203"/>
      </g>
     </g>
    </g>
    <g id="ytick_4">
     <g id="line2d_25">
      <path d="M 81.505625 202.418373 
L 705.005625 202.418373 
" clip-path="url(#p3a8d81c82c)" style="fill: none; stroke-dasharray: 2.96,1.28; stroke-dashoffset: 0; stroke: #808080; stroke-width: 0.8"/>
     </g>
     <g id="line2d_26">
      <g>
       <use xlink:href="#ma68b120b9a" x="81.505625" y="202.418373" style="stroke: #000000; stroke-width: 0.8"/>
      </g>
     </g>
     <g id="text_14">
      <!-- 3.00 -->
      <g transform="translate(34.4275 209.256966) scale(0.18 -0.18)">
       <use xlink:href="#DejaVuSans-33"/>
       <use xlink:href="#DejaVuSans-2e" x="63.623047"/>
       <use xlink:href="#DejaVuSans-30" x="95.410156"/>
       <use xlink:href="#DejaVuSans-30" x="159.033203"/>
      </g>
     </g>
    </g>
    <g id="ytick_5">
     <g id="line2d_27">
      <path d="M 81.505625 157.978614 
L 705.005625 157.978614 
" clip-path="url(#p3a8d81c82c)" style="fill: none; stroke-dasharray: 2.96,1.28; stroke-dashoffset: 0; stroke: #808080; stroke-width: 0.8"/>
     </g>
     <g id="line2d_28">
      <g>
       <use xlink:href="#ma68b120b9a" x="81.505625" y="157.978614" style="stroke: #000000; stroke-width: 0.8"/>
      </g>
     </g>
     <g id="text_15">
      <!-- 3.25 -->
      <g transform="translate(34.4275 164.817208) scale(0.18 -0.18)">
       <use xlink:href="#DejaVuSans-33"/>
       <use xlink:href="#DejaVuSans-2e" x="63.623047"/>
       <use xlink:href="#DejaVuSans-32" x="95.410156"/>
       <use xlink:href="#DejaVuSans-35" x="159.033203"/>
      </g>
     </g>
    </g>
    <g id="ytick_6">
     <g id="line2d_29">
      <path d="M 81.505625 113.538856 
L 705.005625 113.538856 
" clip-path="url(#p3a8d81c82c)" style="fill: none; stroke-dasharray: 2.96,1.28; stroke-dashoffset: 0; stroke: #808080; stroke-width: 0.8"/>
     </g>
     <g id="line2d_30">
      <g>
       <use xlink:href="#ma68b120b9a" x="81.505625" y="113.538856" style="stroke: #000000; stroke-width: 0.8"/>
      </g>
     </g>
     <g id="text_16">
      <!-- 3.50 -->
      <g transform="translate(34.4275 120.37745) scale(0.18 -0.18)">
       <use xlink:href="#DejaVuSans-33"/>
       <use xlink:href="#DejaVuSans-2e" x="63.623047"/>
       <use xlink:href="#DejaVuSans-35" x="95.410156"/>
       <use xlink:href="#DejaVuSans-30" x="159.033203"/>
      </g>
     </g>
    </g>
    <g id="ytick_7">
     <g id="line2d_31">
      <path d="M 81.505625 69.099098 
L 705.005625 69.099098 
" clip-path="url(#p3a8d81c82c)" style="fill: none; stroke-dasharray: 2.96,1.28; stroke-dashoffset: 0; stroke: #808080; stroke-width: 0.8"/>
     </g>
     <g id="line2d_32">
      <g>
       <use xlink:href="#ma68b120b9a" x="81.505625" y="69.099098" style="stroke: #000000; stroke-width: 0.8"/>
      </g>
     </g>
     <g id="text_17">
      <!-- 3.75 -->
      <g transform="translate(34.4275 75.937692) scale(0.18 -0.18)">
       <use xlink:href="#DejaVuSans-33"/>
       <use xlink:href="#DejaVuSans-2e" x="63.623047"/>
       <use xlink:href="#DejaVuSans-37" x="95.410156"/>
       <use xlink:href="#DejaVuSans-35" x="159.033203"/>
      </g>
     </g>
    </g>
    <g id="text_18">
     <!-- Loss (RMSE) -->
     <g transform="translate(25.43625 271.6475) rotate(-90) scale(0.24 -0.24)">
      <defs>
       <path id="DejaVuSans-28" d="M 1984 4856 
Q 1566 4138 1362 3434 
Q 1159 2731 1159 2009 
Q 1159 1288 1364 580 
Q 1569 -128 1984 -844 
L 1484 -844 
Q 1016 -109 783 600 
Q 550 1309 550 2009 
Q 550 2706 781 3412 
Q 1013 4119 1484 4856 
L 1984 4856 
z
" transform="scale(0.015625)"/>
       <path id="DejaVuSans-52" d="M 2841 2188 
Q 3044 2119 3236 1894 
Q 3428 1669 3622 1275 
L 4263 0 
L 3584 0 
L 2988 1197 
Q 2756 1666 2539 1819 
Q 2322 1972 1947 1972 
L 1259 1972 
L 1259 0 
L 628 0 
L 628 4666 
L 2053 4666 
Q 2853 4666 3247 4331 
Q 3641 3997 3641 3322 
Q 3641 2881 3436 2590 
Q 3231 2300 2841 2188 
z
M 1259 4147 
L 1259 2491 
L 2053 2491 
Q 2509 2491 2742 2702 
Q 2975 2913 2975 3322 
Q 2975 3731 2742 3939 
Q 2509 4147 2053 4147 
L 1259 4147 
z
" transform="scale(0.015625)"/>
       <path id="DejaVuSans-4d" d="M 628 4666 
L 1569 4666 
L 2759 1491 
L 3956 4666 
L 4897 4666 
L 4897 0 
L 4281 0 
L 4281 4097 
L 3078 897 
L 2444 897 
L 1241 4097 
L 1241 0 
L 628 0 
L 628 4666 
z
" transform="scale(0.015625)"/>
       <path id="DejaVuSans-53" d="M 3425 4513 
L 3425 3897 
Q 3066 4069 2747 4153 
Q 2428 4238 2131 4238 
Q 1616 4238 1336 4038 
Q 1056 3838 1056 3469 
Q 1056 3159 1242 3001 
Q 1428 2844 1947 2747 
L 2328 2669 
Q 3034 2534 3370 2195 
Q 3706 1856 3706 1288 
Q 3706 609 3251 259 
Q 2797 -91 1919 -91 
Q 1588 -91 1214 -16 
Q 841 59 441 206 
L 441 856 
Q 825 641 1194 531 
Q 1563 422 1919 422 
Q 2459 422 2753 634 
Q 3047 847 3047 1241 
Q 3047 1584 2836 1778 
Q 2625 1972 2144 2069 
L 1759 2144 
Q 1053 2284 737 2584 
Q 422 2884 422 3419 
Q 422 4038 858 4394 
Q 1294 4750 2059 4750 
Q 2388 4750 2728 4690 
Q 3069 4631 3425 4513 
z
" transform="scale(0.015625)"/>
       <path id="DejaVuSans-45" d="M 628 4666 
L 3578 4666 
L 3578 4134 
L 1259 4134 
L 1259 2753 
L 3481 2753 
L 3481 2222 
L 1259 2222 
L 1259 531 
L 3634 531 
L 3634 0 
L 628 0 
L 628 4666 
z
" transform="scale(0.015625)"/>
       <path id="DejaVuSans-29" d="M 513 4856 
L 1013 4856 
Q 1481 4119 1714 3412 
Q 1947 2706 1947 2009 
Q 1947 1309 1714 600 
Q 1481 -109 1013 -844 
L 513 -844 
Q 928 -128 1133 580 
Q 1338 1288 1338 2009 
Q 1338 2731 1133 3434 
Q 928 4138 513 4856 
z
" transform="scale(0.015625)"/>
      </defs>
      <use xlink:href="#DejaVuSans-4c"/>
      <use xlink:href="#DejaVuSans-6f" x="53.962891"/>
      <use xlink:href="#DejaVuSans-73" x="115.144531"/>
      <use xlink:href="#DejaVuSans-73" x="167.244141"/>
      <use xlink:href="#DejaVuSans-20" x="219.34375"/>
      <use xlink:href="#DejaVuSans-28" x="251.130859"/>
      <use xlink:href="#DejaVuSans-52" x="290.144531"/>
      <use xlink:href="#DejaVuSans-4d" x="359.626953"/>
      <use xlink:href="#DejaVuSans-53" x="445.90625"/>
      <use xlink:href="#DejaVuSans-45" x="509.382812"/>
      <use xlink:href="#DejaVuSans-29" x="572.566406"/>
     </g>
    </g>
   </g>
   <g id="line2d_33">
    <path d="M 109.846534 68.754588 
L 180.698807 92.968765 
L 251.55108 102.615228 
L 322.403352 126.746091 
L 393.255625 144.607384 
L 464.107898 181.474408 
L 534.96017 224.269402 
L 605.812443 257.02349 
L 676.664716 293.257738 
" clip-path="url(#p3a8d81c82c)" style="fill: none; stroke: #000080; stroke-width: 1.5; stroke-linecap: square"/>
    <defs>
     <path id="m84af6a4b82" d="M 0 3 
C 0.795609 3 1.55874 2.683901 2.12132 2.12132 
C 2.683901 1.55874 3 0.795609 3 0 
C 3 -0.795609 2.683901 -1.55874 2.12132 -2.12132 
C 1.55874 -2.683901 0.795609 -3 0 -3 
C -0.795609 -3 -1.55874 -2.683901 -2.12132 -2.12132 
C -2.683901 -1.55874 -3 -0.795609 -3 0 
C -3 0.795609 -2.683901 1.55874 -2.12132 2.12132 
C -1.55874 2.683901 -0.795609 3 0 3 
z
" style="stroke: #000080"/>
    </defs>
    <g clip-path="url(#p3a8d81c82c)">
     <use xlink:href="#m84af6a4b82" x="109.846534" y="68.754588" style="fill: #000080; stroke: #000080"/>
     <use xlink:href="#m84af6a4b82" x="180.698807" y="92.968765" style="fill: #000080; stroke: #000080"/>
     <use xlink:href="#m84af6a4b82" x="251.55108" y="102.615228" style="fill: #000080; stroke: #000080"/>
     <use xlink:href="#m84af6a4b82" x="322.403352" y="126.746091" style="fill: #000080; stroke: #000080"/>
     <use xlink:href="#m84af6a4b82" x="393.255625" y="144.607384" style="fill: #000080; stroke: #000080"/>
     <use xlink:href="#m84af6a4b82" x="464.107898" y="181.474408" style="fill: #000080; stroke: #000080"/>
     <use xlink:href="#m84af6a4b82" x="534.96017" y="224.269402" style="fill: #000080; stroke: #000080"/>
     <use xlink:href="#m84af6a4b82" x="605.812443" y="257.02349" style="fill: #000080; stroke: #000080"/>
     <use xlink:href="#m84af6a4b82" x="676.664716" y="293.257738" style="fill: #000080; stroke: #000080"/>
    </g>
   </g>
   <g id="line2d_34">
    <path d="M 109.846534 121.010763 
L 180.698807 231.435605 
L 251.55108 245.856806 
L 322.403352 274.329947 
L 393.255625 282.768293 
L 464.107898 299.795346 
L 534.96017 327.782789 
L 605.812443 331.118226 
L 676.664716 348.272963 
" clip-path="url(#p3a8d81c82c)" style="fill: none; stroke-dasharray: 5.55,2.4; stroke-dashoffset: 0; stroke: #ffd700; stroke-width: 1.5"/>
    <defs>
     <path id="m7d59ae422f" d="M -3 3 
L 3 3 
L 3 -3 
L -3 -3 
z
" style="stroke: #ffd700; stroke-linejoin: miter"/>
    </defs>
    <g clip-path="url(#p3a8d81c82c)">
     <use xlink:href="#m7d59ae422f" x="109.846534" y="121.010763" style="fill: #ffd700; stroke: #ffd700; stroke-linejoin: miter"/>
     <use xlink:href="#m7d59ae422f" x="180.698807" y="231.435605" style="fill: #ffd700; stroke: #ffd700; stroke-linejoin: miter"/>
     <use xlink:href="#m7d59ae422f" x="251.55108" y="245.856806" style="fill: #ffd700; stroke: #ffd700; stroke-linejoin: miter"/>
     <use xlink:href="#m7d59ae422f" x="322.403352" y="274.329947" style="fill: #ffd700; stroke: #ffd700; stroke-linejoin: miter"/>
     <use xlink:href="#m7d59ae422f" x="393.255625" y="282.768293" style="fill: #ffd700; stroke: #ffd700; stroke-linejoin: miter"/>
     <use xlink:href="#m7d59ae422f" x="464.107898" y="299.795346" style="fill: #ffd700; stroke: #ffd700; stroke-linejoin: miter"/>
     <use xlink:href="#m7d59ae422f" x="534.96017" y="327.782789" style="fill: #ffd700; stroke: #ffd700; stroke-linejoin: miter"/>
     <use xlink:href="#m7d59ae422f" x="605.812443" y="331.118226" style="fill: #ffd700; stroke: #ffd700; stroke-linejoin: miter"/>
     <use xlink:href="#m7d59ae422f" x="676.664716" y="348.272963" style="fill: #ffd700; stroke: #ffd700; stroke-linejoin: miter"/>
    </g>
   </g>
   <g id="line2d_35">
    <path d="M 109.846534 120.453284 
L 180.698807 232.570144 
L 251.55108 249.165766 
L 322.403352 273.933141 
L 393.255625 280.991974 
L 464.107898 299.541849 
L 534.96017 327.599444 
L 605.812443 331.20519 
L 676.664716 348.157893 
" clip-path="url(#p3a8d81c82c)" style="fill: none; stroke: #ff8c00; stroke-width: 1.5; stroke-linecap: square"/>
    <defs>
     <path id="m726853dc2f" d="M 0 -3 
L -0.673542 -0.927051 
L -2.85317 -0.927051 
L -1.089814 0.354102 
L -1.763356 2.427051 
L -0 1.145898 
L 1.763356 2.427051 
L 1.089814 0.354102 
L 2.85317 -0.927051 
L 0.673542 -0.927051 
z
" style="stroke: #ff8c00; stroke-linejoin: bevel"/>
    </defs>
    <g clip-path="url(#p3a8d81c82c)">
     <use xlink:href="#m726853dc2f" x="109.846534" y="120.453284" style="fill: #ff8c00; stroke: #ff8c00; stroke-linejoin: bevel"/>
     <use xlink:href="#m726853dc2f" x="180.698807" y="232.570144" style="fill: #ff8c00; stroke: #ff8c00; stroke-linejoin: bevel"/>
     <use xlink:href="#m726853dc2f" x="251.55108" y="249.165766" style="fill: #ff8c00; stroke: #ff8c00; stroke-linejoin: bevel"/>
     <use xlink:href="#m726853dc2f" x="322.403352" y="273.933141" style="fill: #ff8c00; stroke: #ff8c00; stroke-linejoin: bevel"/>
     <use xlink:href="#m726853dc2f" x="393.255625" y="280.991974" style="fill: #ff8c00; stroke: #ff8c00; stroke-linejoin: bevel"/>
     <use xlink:href="#m726853dc2f" x="464.107898" y="299.541849" style="fill: #ff8c00; stroke: #ff8c00; stroke-linejoin: bevel"/>
     <use xlink:href="#m726853dc2f" x="534.96017" y="327.599444" style="fill: #ff8c00; stroke: #ff8c00; stroke-linejoin: bevel"/>
     <use xlink:href="#m726853dc2f" x="605.812443" y="331.20519" style="fill: #ff8c00; stroke: #ff8c00; stroke-linejoin: bevel"/>
     <use xlink:href="#m726853dc2f" x="676.664716" y="348.157893" style="fill: #ff8c00; stroke: #ff8c00; stroke-linejoin: bevel"/>
    </g>
   </g>
   <g id="line2d_36">
    <path d="M 109.846534 121.192837 
L 180.698807 226.771161 
L 251.55108 246.952856 
L 322.403352 272.404203 
L 393.255625 283.461974 
L 464.107898 300.28585 
L 534.96017 327.98475 
L 605.812443 331.175703 
L 676.664716 348.197518 
" clip-path="url(#p3a8d81c82c)" style="fill: none; stroke-dasharray: 9.6,2.4,1.5,2.4; stroke-dashoffset: 0; stroke: #ff00ff; stroke-width: 1.5"/>
    <defs>
     <path id="m40d0652a37" d="M -0 4.242641 
L 2.545584 0 
L 0 -4.242641 
L -2.545584 -0 
z
" style="stroke: #ff00ff; stroke-linejoin: miter"/>
    </defs>
    <g clip-path="url(#p3a8d81c82c)">
     <use xlink:href="#m40d0652a37" x="109.846534" y="121.192837" style="fill: #ff00ff; stroke: #ff00ff; stroke-linejoin: miter"/>
     <use xlink:href="#m40d0652a37" x="180.698807" y="226.771161" style="fill: #ff00ff; stroke: #ff00ff; stroke-linejoin: miter"/>
     <use xlink:href="#m40d0652a37" x="251.55108" y="246.952856" style="fill: #ff00ff; stroke: #ff00ff; stroke-linejoin: miter"/>
     <use xlink:href="#m40d0652a37" x="322.403352" y="272.404203" style="fill: #ff00ff; stroke: #ff00ff; stroke-linejoin: miter"/>
     <use xlink:href="#m40d0652a37" x="393.255625" y="283.461974" style="fill: #ff00ff; stroke: #ff00ff; stroke-linejoin: miter"/>
     <use xlink:href="#m40d0652a37" x="464.107898" y="300.28585" style="fill: #ff00ff; stroke: #ff00ff; stroke-linejoin: miter"/>
     <use xlink:href="#m40d0652a37" x="534.96017" y="327.98475" style="fill: #ff00ff; stroke: #ff00ff; stroke-linejoin: miter"/>
     <use xlink:href="#m40d0652a37" x="605.812443" y="331.175703" style="fill: #ff00ff; stroke: #ff00ff; stroke-linejoin: miter"/>
     <use xlink:href="#m40d0652a37" x="676.664716" y="348.197518" style="fill: #ff00ff; stroke: #ff00ff; stroke-linejoin: miter"/>
    </g>
   </g>
   <g id="patch_3">
    <path d="M 81.505625 365.07625 
L 81.505625 31.43625 
" style="fill: none; stroke: #000000; stroke-width: 0.8; stroke-linejoin: miter; stroke-linecap: square"/>
   </g>
   <g id="patch_4">
    <path d="M 705.005625 365.07625 
L 705.005625 31.43625 
" style="fill: none; stroke: #000000; stroke-width: 0.8; stroke-linejoin: miter; stroke-linecap: square"/>
   </g>
   <g id="patch_5">
    <path d="M 81.505625 365.07625 
L 705.005625 365.07625 
" style="fill: none; stroke: #000000; stroke-width: 0.8; stroke-linejoin: miter; stroke-linecap: square"/>
   </g>
   <g id="patch_6">
    <path d="M 81.505625 31.43625 
L 705.005625 31.43625 
" style="fill: none; stroke: #000000; stroke-width: 0.8; stroke-linejoin: miter; stroke-linecap: square"/>
   </g>
   <g id="text_19">
    <!-- Results on Hetero Tabular Experimental Scenario -->
    <g transform="translate(99.671875 25.43625) scale(0.24 -0.24)">
     <defs>
      <path id="DejaVuSans-48" d="M 628 4666 
L 1259 4666 
L 1259 2753 
L 3553 2753 
L 3553 4666 
L 4184 4666 
L 4184 0 
L 3553 0 
L 3553 2222 
L 1259 2222 
L 1259 0 
L 628 0 
L 628 4666 
z
" transform="scale(0.015625)"/>
      <path id="DejaVuSans-54" d="M -19 4666 
L 3928 4666 
L 3928 4134 
L 2272 4134 
L 2272 0 
L 1638 0 
L 1638 4134 
L -19 4134 
L -19 4666 
z
" transform="scale(0.015625)"/>
      <path id="DejaVuSans-78" d="M 3513 3500 
L 2247 1797 
L 3578 0 
L 2900 0 
L 1881 1375 
L 863 0 
L 184 0 
L 1544 1831 
L 300 3500 
L 978 3500 
L 1906 2253 
L 2834 3500 
L 3513 3500 
z
" transform="scale(0.015625)"/>
      <path id="DejaVuSans-70" d="M 1159 525 
L 1159 -1331 
L 581 -1331 
L 581 3500 
L 1159 3500 
L 1159 2969 
Q 1341 3281 1617 3432 
Q 1894 3584 2278 3584 
Q 2916 3584 3314 3078 
Q 3713 2572 3713 1747 
Q 3713 922 3314 415 
Q 2916 -91 2278 -91 
Q 1894 -91 1617 61 
Q 1341 213 1159 525 
z
M 3116 1747 
Q 3116 2381 2855 2742 
Q 2594 3103 2138 3103 
Q 1681 3103 1420 2742 
Q 1159 2381 1159 1747 
Q 1159 1113 1420 752 
Q 1681 391 2138 391 
Q 2594 391 2855 752 
Q 3116 1113 3116 1747 
z
" transform="scale(0.015625)"/>
      <path id="DejaVuSans-69" d="M 603 3500 
L 1178 3500 
L 1178 0 
L 603 0 
L 603 3500 
z
M 603 4863 
L 1178 4863 
L 1178 4134 
L 603 4134 
L 603 4863 
z
" transform="scale(0.015625)"/>
      <path id="DejaVuSans-63" d="M 3122 3366 
L 3122 2828 
Q 2878 2963 2633 3030 
Q 2388 3097 2138 3097 
Q 1578 3097 1268 2742 
Q 959 2388 959 1747 
Q 959 1106 1268 751 
Q 1578 397 2138 397 
Q 2388 397 2633 464 
Q 2878 531 3122 666 
L 3122 134 
Q 2881 22 2623 -34 
Q 2366 -91 2075 -91 
Q 1284 -91 818 406 
Q 353 903 353 1747 
Q 353 2603 823 3093 
Q 1294 3584 2113 3584 
Q 2378 3584 2631 3529 
Q 2884 3475 3122 3366 
z
" transform="scale(0.015625)"/>
     </defs>
     <use xlink:href="#DejaVuSans-52"/>
     <use xlink:href="#DejaVuSans-65" x="64.982422"/>
     <use xlink:href="#DejaVuSans-73" x="126.505859"/>
     <use xlink:href="#DejaVuSans-75" x="178.605469"/>
     <use xlink:href="#DejaVuSans-6c" x="241.984375"/>
     <use xlink:href="#DejaVuSans-74" x="269.767578"/>
     <use xlink:href="#DejaVuSans-73" x="308.976562"/>
     <use xlink:href="#DejaVuSans-20" x="361.076172"/>
     <use xlink:href="#DejaVuSans-6f" x="392.863281"/>
     <use xlink:href="#DejaVuSans-6e" x="454.044922"/>
     <use xlink:href="#DejaVuSans-20" x="517.423828"/>
     <use xlink:href="#DejaVuSans-48" x="549.210938"/>
     <use xlink:href="#DejaVuSans-65" x="624.40625"/>
     <use xlink:href="#DejaVuSans-74" x="685.929688"/>
     <use xlink:href="#DejaVuSans-65" x="725.138672"/>
     <use xlink:href="#DejaVuSans-72" x="786.662109"/>
     <use xlink:href="#DejaVuSans-6f" x="825.525391"/>
     <use xlink:href="#DejaVuSans-20" x="886.707031"/>
     <use xlink:href="#DejaVuSans-54" x="918.494141"/>
     <use xlink:href="#DejaVuSans-61" x="963.078125"/>
     <use xlink:href="#DejaVuSans-62" x="1024.357422"/>
     <use xlink:href="#DejaVuSans-75" x="1087.833984"/>
     <use xlink:href="#DejaVuSans-6c" x="1151.212891"/>
     <use xlink:href="#DejaVuSans-61" x="1178.996094"/>
     <use xlink:href="#DejaVuSans-72" x="1240.275391"/>
     <use xlink:href="#DejaVuSans-20" x="1281.388672"/>
     <use xlink:href="#DejaVuSans-45" x="1313.175781"/>
     <use xlink:href="#DejaVuSans-78" x="1376.359375"/>
     <use xlink:href="#DejaVuSans-70" x="1435.539062"/>
     <use xlink:href="#DejaVuSans-65" x="1499.015625"/>
     <use xlink:href="#DejaVuSans-72" x="1560.539062"/>
     <use xlink:href="#DejaVuSans-69" x="1601.652344"/>
     <use xlink:href="#DejaVuSans-6d" x="1629.435547"/>
     <use xlink:href="#DejaVuSans-65" x="1726.847656"/>
     <use xlink:href="#DejaVuSans-6e" x="1788.371094"/>
     <use xlink:href="#DejaVuSans-74" x="1851.75"/>
     <use xlink:href="#DejaVuSans-61" x="1890.958984"/>
     <use xlink:href="#DejaVuSans-6c" x="1952.238281"/>
     <use xlink:href="#DejaVuSans-20" x="1980.021484"/>
     <use xlink:href="#DejaVuSans-53" x="2011.808594"/>
     <use xlink:href="#DejaVuSans-63" x="2075.285156"/>
     <use xlink:href="#DejaVuSans-65" x="2130.265625"/>
     <use xlink:href="#DejaVuSans-6e" x="2191.789062"/>
     <use xlink:href="#DejaVuSans-61" x="2255.167969"/>
     <use xlink:href="#DejaVuSans-72" x="2316.447266"/>
     <use xlink:href="#DejaVuSans-69" x="2357.560547"/>
     <use xlink:href="#DejaVuSans-6f" x="2385.34375"/>
    </g>
   </g>
   <g id="legend_1">
    <g id="patch_7">
     <path d="M 381.351562 151.51875 
L 692.405625 151.51875 
Q 696.005625 151.51875 696.005625 147.91875 
L 696.005625 44.03625 
Q 696.005625 40.43625 692.405625 40.43625 
L 381.351562 40.43625 
Q 377.751562 40.43625 377.751562 44.03625 
L 377.751562 147.91875 
Q 377.751562 151.51875 381.351562 151.51875 
z
" style="fill: #ffffff; opacity: 0.8; stroke: #cccccc; stroke-linejoin: miter"/>
    </g>
    <g id="line2d_37">
     <path d="M 384.951562 55.013437 
L 402.951562 55.013437 
L 420.951562 55.013437 
" style="fill: none; stroke: #000080; stroke-width: 1.5; stroke-linecap: square"/>
     <g>
      <use xlink:href="#m84af6a4b82" x="402.951562" y="55.013437" style="fill: #000080; stroke: #000080"/>
     </g>
    </g>
    <g id="text_20">
     <!-- User Model -->
     <g transform="translate(435.351562 61.313437) scale(0.18 -0.18)">
      <use xlink:href="#DejaVuSans-55"/>
      <use xlink:href="#DejaVuSans-73" x="73.193359"/>
      <use xlink:href="#DejaVuSans-65" x="125.292969"/>
      <use xlink:href="#DejaVuSans-72" x="186.816406"/>
      <use xlink:href="#DejaVuSans-20" x="227.929688"/>
      <use xlink:href="#DejaVuSans-4d" x="259.716797"/>
      <use xlink:href="#DejaVuSans-6f" x="345.996094"/>
      <use xlink:href="#DejaVuSans-64" x="407.177734"/>
      <use xlink:href="#DejaVuSans-65" x="470.654297"/>
      <use xlink:href="#DejaVuSans-6c" x="532.177734"/>
     </g>
    </g>
    <g id="line2d_38">
     <path d="M 384.951562 81.434062 
L 402.951562 81.434062 
L 420.951562 81.434062 
" style="fill: none; stroke-dasharray: 5.55,2.4; stroke-dashoffset: 0; stroke: #ffd700; stroke-width: 1.5"/>
     <g>
      <use xlink:href="#m7d59ae422f" x="402.951562" y="81.434062" style="fill: #ffd700; stroke: #ffd700; stroke-linejoin: miter"/>
     </g>
    </g>
    <g id="text_21">
     <!-- FeatureAugment (Single) -->
     <g transform="translate(435.351562 87.734062) scale(0.18 -0.18)">
      <defs>
       <path id="DejaVuSans-46" d="M 628 4666 
L 3309 4666 
L 3309 4134 
L 1259 4134 
L 1259 2759 
L 3109 2759 
L 3109 2228 
L 1259 2228 
L 1259 0 
L 628 0 
L 628 4666 
z
" transform="scale(0.015625)"/>
       <path id="DejaVuSans-67" d="M 2906 1791 
Q 2906 2416 2648 2759 
Q 2391 3103 1925 3103 
Q 1463 3103 1205 2759 
Q 947 2416 947 1791 
Q 947 1169 1205 825 
Q 1463 481 1925 481 
Q 2391 481 2648 825 
Q 2906 1169 2906 1791 
z
M 3481 434 
Q 3481 -459 3084 -895 
Q 2688 -1331 1869 -1331 
Q 1566 -1331 1297 -1286 
Q 1028 -1241 775 -1147 
L 775 -588 
Q 1028 -725 1275 -790 
Q 1522 -856 1778 -856 
Q 2344 -856 2625 -561 
Q 2906 -266 2906 331 
L 2906 616 
Q 2728 306 2450 153 
Q 2172 0 1784 0 
Q 1141 0 747 490 
Q 353 981 353 1791 
Q 353 2603 747 3093 
Q 1141 3584 1784 3584 
Q 2172 3584 2450 3431 
Q 2728 3278 2906 2969 
L 2906 3500 
L 3481 3500 
L 3481 434 
z
" transform="scale(0.015625)"/>
      </defs>
      <use xlink:href="#DejaVuSans-46"/>
      <use xlink:href="#DejaVuSans-65" x="52.019531"/>
      <use xlink:href="#DejaVuSans-61" x="113.542969"/>
      <use xlink:href="#DejaVuSans-74" x="174.822266"/>
      <use xlink:href="#DejaVuSans-75" x="214.03125"/>
      <use xlink:href="#DejaVuSans-72" x="277.410156"/>
      <use xlink:href="#DejaVuSans-65" x="316.273438"/>
      <use xlink:href="#DejaVuSans-41" x="377.796875"/>
      <use xlink:href="#DejaVuSans-75" x="446.205078"/>
      <use xlink:href="#DejaVuSans-67" x="509.583984"/>
      <use xlink:href="#DejaVuSans-6d" x="573.060547"/>
      <use xlink:href="#DejaVuSans-65" x="670.472656"/>
      <use xlink:href="#DejaVuSans-6e" x="731.996094"/>
      <use xlink:href="#DejaVuSans-74" x="795.375"/>
      <use xlink:href="#DejaVuSans-20" x="834.583984"/>
      <use xlink:href="#DejaVuSans-28" x="866.371094"/>
      <use xlink:href="#DejaVuSans-53" x="905.384766"/>
      <use xlink:href="#DejaVuSans-69" x="968.861328"/>
      <use xlink:href="#DejaVuSans-6e" x="996.644531"/>
      <use xlink:href="#DejaVuSans-67" x="1060.023438"/>
      <use xlink:href="#DejaVuSans-6c" x="1123.5"/>
      <use xlink:href="#DejaVuSans-65" x="1151.283203"/>
      <use xlink:href="#DejaVuSans-29" x="1212.806641"/>
     </g>
    </g>
    <g id="line2d_39">
     <path d="M 384.951562 107.854687 
L 402.951562 107.854687 
L 420.951562 107.854687 
" style="fill: none; stroke: #ff8c00; stroke-width: 1.5; stroke-linecap: square"/>
     <g>
      <use xlink:href="#m726853dc2f" x="402.951562" y="107.854687" style="fill: #ff8c00; stroke: #ff8c00; stroke-linejoin: bevel"/>
     </g>
    </g>
    <g id="text_22">
     <!-- AverageEnsemble (Multiple) -->
     <g transform="translate(435.351562 114.154687) scale(0.18 -0.18)">
      <defs>
       <path id="DejaVuSans-76" d="M 191 3500 
L 800 3500 
L 1894 563 
L 2988 3500 
L 3597 3500 
L 2284 0 
L 1503 0 
L 191 3500 
z
" transform="scale(0.015625)"/>
      </defs>
      <use xlink:href="#DejaVuSans-41"/>
      <use xlink:href="#DejaVuSans-76" x="62.533203"/>
      <use xlink:href="#DejaVuSans-65" x="121.712891"/>
      <use xlink:href="#DejaVuSans-72" x="183.236328"/>
      <use xlink:href="#DejaVuSans-61" x="224.349609"/>
      <use xlink:href="#DejaVuSans-67" x="285.628906"/>
      <use xlink:href="#DejaVuSans-65" x="349.105469"/>
      <use xlink:href="#DejaVuSans-45" x="410.628906"/>
      <use xlink:href="#DejaVuSans-6e" x="473.8125"/>
      <use xlink:href="#DejaVuSans-73" x="537.191406"/>
      <use xlink:href="#DejaVuSans-65" x="589.291016"/>
      <use xlink:href="#DejaVuSans-6d" x="650.814453"/>
      <use xlink:href="#DejaVuSans-62" x="748.226562"/>
      <use xlink:href="#DejaVuSans-6c" x="811.703125"/>
      <use xlink:href="#DejaVuSans-65" x="839.486328"/>
      <use xlink:href="#DejaVuSans-20" x="901.009766"/>
      <use xlink:href="#DejaVuSans-28" x="932.796875"/>
      <use xlink:href="#DejaVuSans-4d" x="971.810547"/>
      <use xlink:href="#DejaVuSans-75" x="1058.089844"/>
      <use xlink:href="#DejaVuSans-6c" x="1121.46875"/>
      <use xlink:href="#DejaVuSans-74" x="1149.251953"/>
      <use xlink:href="#DejaVuSans-69" x="1188.460938"/>
      <use xlink:href="#DejaVuSans-70" x="1216.244141"/>
      <use xlink:href="#DejaVuSans-6c" x="1279.720703"/>
      <use xlink:href="#DejaVuSans-65" x="1307.503906"/>
      <use xlink:href="#DejaVuSans-29" x="1369.027344"/>
     </g>
    </g>
    <g id="line2d_40">
     <path d="M 384.951562 134.275312 
L 402.951562 134.275312 
L 420.951562 134.275312 
" style="fill: none; stroke-dasharray: 9.6,2.4,1.5,2.4; stroke-dashoffset: 0; stroke: #ff00ff; stroke-width: 1.5"/>
     <g>
      <use xlink:href="#m40d0652a37" x="402.951562" y="134.275312" style="fill: #ff00ff; stroke: #ff00ff; stroke-linejoin: miter"/>
     </g>
    </g>
    <g id="text_23">
     <!-- EnsemblePruning (Multiple) -->
     <g transform="translate(435.351562 140.575312) scale(0.18 -0.18)">
      <defs>
       <path id="DejaVuSans-50" d="M 1259 4147 
L 1259 2394 
L 2053 2394 
Q 2494 2394 2734 2622 
Q 2975 2850 2975 3272 
Q 2975 3691 2734 3919 
Q 2494 4147 2053 4147 
L 1259 4147 
z
M 628 4666 
L 2053 4666 
Q 2838 4666 3239 4311 
Q 3641 3956 3641 3272 
Q 3641 2581 3239 2228 
Q 2838 1875 2053 1875 
L 1259 1875 
L 1259 0 
L 628 0 
L 628 4666 
z
" transform="scale(0.015625)"/>
      </defs>
      <use xlink:href="#DejaVuSans-45"/>
      <use xlink:href="#DejaVuSans-6e" x="63.183594"/>
      <use xlink:href="#DejaVuSans-73" x="126.5625"/>
      <use xlink:href="#DejaVuSans-65" x="178.662109"/>
      <use xlink:href="#DejaVuSans-6d" x="240.185547"/>
      <use xlink:href="#DejaVuSans-62" x="337.597656"/>
      <use xlink:href="#DejaVuSans-6c" x="401.074219"/>
      <use xlink:href="#DejaVuSans-65" x="428.857422"/>
      <use xlink:href="#DejaVuSans-50" x="490.380859"/>
      <use xlink:href="#DejaVuSans-72" x="548.933594"/>
      <use xlink:href="#DejaVuSans-75" x="590.046875"/>
      <use xlink:href="#DejaVuSans-6e" x="653.425781"/>
      <use xlink:href="#DejaVuSans-69" x="716.804688"/>
      <use xlink:href="#DejaVuSans-6e" x="744.587891"/>
      <use xlink:href="#DejaVuSans-67" x="807.966797"/>
      <use xlink:href="#DejaVuSans-20" x="871.443359"/>
      <use xlink:href="#DejaVuSans-28" x="903.230469"/>
      <use xlink:href="#DejaVuSans-4d" x="942.244141"/>
      <use xlink:href="#DejaVuSans-75" x="1028.523438"/>
      <use xlink:href="#DejaVuSans-6c" x="1091.902344"/>
      <use xlink:href="#DejaVuSans-74" x="1119.685547"/>
      <use xlink:href="#DejaVuSans-69" x="1158.894531"/>
      <use xlink:href="#DejaVuSans-70" x="1186.677734"/>
      <use xlink:href="#DejaVuSans-6c" x="1250.154297"/>
      <use xlink:href="#DejaVuSans-65" x="1277.9375"/>
      <use xlink:href="#DejaVuSans-29" x="1339.460938"/>
     </g>
    </g>
   </g>
  </g>
 </g>
 <defs>
  <clipPath id="p3a8d81c82c">
   <rect x="81.505625" y="31.43625" width="623.5" height="333.64"/>
  </clipPath>
 </defs>
</svg>
